# xmcd
#
# Track frame offsets:
#	150
#	14170
#	29553
#	41586
#	55421
#	67992
#	80174
#	93513
#	104299
#	116330
#
# Disc length: 1686
#
# Revision: 1
# Processed by: cddbd v1.5.1PL0 Copyright (c) Steve Scherf et al.
# Submitted via: CDex 1.40Beta5
# Normalized: r0:DSETVAR1
#
DISCID=8706940a
DTITLE=Various Artist - Royal Blues
DYEAR=1900
DGENRE=Blues
TTITLE0=Charles Brown - Black Night
TTITLE1=Gatemouth Moore - Everynody Has Their Turn
TTITLE2=Bo Diddley - Walkin and Talkin
TTITLE3=Elmore James - Hand In Hand
TTITLE4=John Lee Hooker - Hobo Blues
TTITLE5=John Mayall - Lost and Gone
TTITLE6=Dinah Washington - Chewin Mama Blues
TTITLE7=Billie Holiday - Nobody's Business
TTITLE8=Lightnin Hopkins - Have You Ever Loved A Woman
TTITLE9=Leadbelly - On A Monday
EXTD=ID3G:   0
EXTT0=
EXTT1=
EXTT2=
EXTT3=
EXTT4=
EXTT5=
EXTT6=
EXTT7=
EXTT8=
EXTT9=
PLAYORDER=
